<mxfile host="app.diagrams.net" modified="2024-03-26T09:43:48.524Z" agent="Mozilla/5.0 (X11; Ubuntu; Linux x86_64; rv:123.0) Gecko/20100101 Firefox/123.0" etag="AmCwLwBCutM4RyYwo0tB" version="23.1.2" type="device">
  <diagram name="Page-1" id="ZNgatQNP_Dz1pTBqo4t7">
    <mxGraphModel dx="1364" dy="795" grid="1" gridSize="10" guides="1" tooltips="1" connect="1" arrows="1" fold="1" page="1" pageScale="1" pageWidth="827" pageHeight="1169" math="0" shadow="0">
      <root>
        <mxCell id="0" />
        <mxCell id="1" parent="0" />
        <mxCell id="-ICo0GWUgO3AaRTY43pM-3" value="52" style="rounded=1;whiteSpace=wrap;html=1;" vertex="1" parent="1">
          <mxGeometry x="440" y="170" width="120" height="60" as="geometry" />
        </mxCell>
        <mxCell id="-ICo0GWUgO3AaRTY43pM-4" value="17" style="rounded=1;whiteSpace=wrap;html=1;" vertex="1" parent="1">
          <mxGeometry x="440" y="280" width="120" height="60" as="geometry" />
        </mxCell>
        <mxCell id="-ICo0GWUgO3AaRTY43pM-5" value="31" style="rounded=1;whiteSpace=wrap;html=1;" vertex="1" parent="1">
          <mxGeometry x="440" y="390" width="120" height="60" as="geometry" />
        </mxCell>
        <mxCell id="-ICo0GWUgO3AaRTY43pM-6" value="31" style="rounded=1;whiteSpace=wrap;html=1;" vertex="1" parent="1">
          <mxGeometry x="440" y="500" width="120" height="60" as="geometry" />
        </mxCell>
        <mxCell id="-ICo0GWUgO3AaRTY43pM-7" value="i" style="text;html=1;strokeColor=none;fillColor=none;align=center;verticalAlign=middle;whiteSpace=wrap;rounded=0;" vertex="1" parent="1">
          <mxGeometry x="470" y="140" width="60" height="30" as="geometry" />
        </mxCell>
        <mxCell id="-ICo0GWUgO3AaRTY43pM-8" value="j" style="text;html=1;strokeColor=none;fillColor=none;align=center;verticalAlign=middle;whiteSpace=wrap;rounded=0;" vertex="1" parent="1">
          <mxGeometry x="470" y="250" width="60" height="30" as="geometry" />
        </mxCell>
        <mxCell id="-ICo0GWUgO3AaRTY43pM-9" value="k" style="text;html=1;strokeColor=none;fillColor=none;align=center;verticalAlign=middle;whiteSpace=wrap;rounded=0;" vertex="1" parent="1">
          <mxGeometry x="470" y="360" width="60" height="30" as="geometry" />
        </mxCell>
        <mxCell id="-ICo0GWUgO3AaRTY43pM-10" value="tmp" style="text;html=1;strokeColor=none;fillColor=none;align=center;verticalAlign=middle;whiteSpace=wrap;rounded=0;" vertex="1" parent="1">
          <mxGeometry x="470" y="470" width="60" height="30" as="geometry" />
        </mxCell>
        <mxCell id="-ICo0GWUgO3AaRTY43pM-11" value="" style="rounded=1;whiteSpace=wrap;html=1;" vertex="1" parent="1">
          <mxGeometry x="140" y="170" width="120" height="60" as="geometry" />
        </mxCell>
        <mxCell id="-ICo0GWUgO3AaRTY43pM-12" value="" style="rounded=1;whiteSpace=wrap;html=1;" vertex="1" parent="1">
          <mxGeometry x="140" y="280" width="120" height="60" as="geometry" />
        </mxCell>
        <mxCell id="-ICo0GWUgO3AaRTY43pM-13" value="" style="rounded=1;whiteSpace=wrap;html=1;" vertex="1" parent="1">
          <mxGeometry x="140" y="390" width="120" height="60" as="geometry" />
        </mxCell>
        <mxCell id="-ICo0GWUgO3AaRTY43pM-14" value="" style="rounded=1;whiteSpace=wrap;html=1;" vertex="1" parent="1">
          <mxGeometry x="140" y="500" width="120" height="60" as="geometry" />
        </mxCell>
        <mxCell id="-ICo0GWUgO3AaRTY43pM-15" value="pi" style="text;html=1;strokeColor=none;fillColor=none;align=center;verticalAlign=middle;whiteSpace=wrap;rounded=0;" vertex="1" parent="1">
          <mxGeometry x="170" y="140" width="60" height="30" as="geometry" />
        </mxCell>
        <mxCell id="-ICo0GWUgO3AaRTY43pM-16" value="pj" style="text;html=1;strokeColor=none;fillColor=none;align=center;verticalAlign=middle;whiteSpace=wrap;rounded=0;" vertex="1" parent="1">
          <mxGeometry x="170" y="250" width="60" height="30" as="geometry" />
        </mxCell>
        <mxCell id="-ICo0GWUgO3AaRTY43pM-17" value="pk" style="text;html=1;strokeColor=none;fillColor=none;align=center;verticalAlign=middle;whiteSpace=wrap;rounded=0;" vertex="1" parent="1">
          <mxGeometry x="170" y="360" width="60" height="30" as="geometry" />
        </mxCell>
        <mxCell id="-ICo0GWUgO3AaRTY43pM-18" value="ptmp" style="text;html=1;strokeColor=none;fillColor=none;align=center;verticalAlign=middle;whiteSpace=wrap;rounded=0;" vertex="1" parent="1">
          <mxGeometry x="170" y="470" width="60" height="30" as="geometry" />
        </mxCell>
        <mxCell id="-ICo0GWUgO3AaRTY43pM-29" style="edgeStyle=orthogonalEdgeStyle;rounded=0;orthogonalLoop=1;jettySize=auto;html=1;exitX=1;exitY=0.5;exitDx=0;exitDy=0;entryX=0;entryY=0.5;entryDx=0;entryDy=0;strokeWidth=3;" edge="1" parent="1" source="-ICo0GWUgO3AaRTY43pM-22" target="-ICo0GWUgO3AaRTY43pM-4">
          <mxGeometry relative="1" as="geometry" />
        </mxCell>
        <mxCell id="-ICo0GWUgO3AaRTY43pM-22" value="" style="ellipse;whiteSpace=wrap;html=1;fillColor=#080808;" vertex="1" parent="1">
          <mxGeometry x="190" y="190" width="20" height="20" as="geometry" />
        </mxCell>
        <mxCell id="-ICo0GWUgO3AaRTY43pM-30" style="edgeStyle=orthogonalEdgeStyle;rounded=0;orthogonalLoop=1;jettySize=auto;html=1;exitX=1;exitY=0.5;exitDx=0;exitDy=0;entryX=0;entryY=0.5;entryDx=0;entryDy=0;strokeWidth=3;" edge="1" parent="1" source="-ICo0GWUgO3AaRTY43pM-24" target="-ICo0GWUgO3AaRTY43pM-5">
          <mxGeometry relative="1" as="geometry">
            <Array as="points">
              <mxPoint x="210" y="350" />
              <mxPoint x="325" y="350" />
              <mxPoint x="325" y="420" />
            </Array>
          </mxGeometry>
        </mxCell>
        <mxCell id="-ICo0GWUgO3AaRTY43pM-24" value="" style="ellipse;whiteSpace=wrap;html=1;fillColor=#080808;" vertex="1" parent="1">
          <mxGeometry x="190" y="300" width="20" height="20" as="geometry" />
        </mxCell>
        <mxCell id="-ICo0GWUgO3AaRTY43pM-31" style="edgeStyle=orthogonalEdgeStyle;rounded=0;orthogonalLoop=1;jettySize=auto;html=1;exitX=1;exitY=0.5;exitDx=0;exitDy=0;entryX=0;entryY=0.5;entryDx=0;entryDy=0;strokeWidth=3;" edge="1" parent="1" source="-ICo0GWUgO3AaRTY43pM-26" target="-ICo0GWUgO3AaRTY43pM-6">
          <mxGeometry relative="1" as="geometry">
            <Array as="points">
              <mxPoint x="300" y="420" />
              <mxPoint x="300" y="550" />
              <mxPoint x="380" y="550" />
              <mxPoint x="380" y="530" />
            </Array>
          </mxGeometry>
        </mxCell>
        <mxCell id="-ICo0GWUgO3AaRTY43pM-26" value="" style="ellipse;whiteSpace=wrap;html=1;fillColor=#080808;" vertex="1" parent="1">
          <mxGeometry x="190" y="410" width="20" height="20" as="geometry" />
        </mxCell>
        <mxCell id="-ICo0GWUgO3AaRTY43pM-35" style="edgeStyle=orthogonalEdgeStyle;rounded=0;orthogonalLoop=1;jettySize=auto;html=1;exitX=1;exitY=0.5;exitDx=0;exitDy=0;entryX=0;entryY=0.5;entryDx=0;entryDy=0;strokeWidth=3;" edge="1" parent="1" source="-ICo0GWUgO3AaRTY43pM-28" target="-ICo0GWUgO3AaRTY43pM-3">
          <mxGeometry relative="1" as="geometry">
            <Array as="points">
              <mxPoint x="360" y="530" />
              <mxPoint x="360" y="200" />
            </Array>
          </mxGeometry>
        </mxCell>
        <mxCell id="-ICo0GWUgO3AaRTY43pM-28" value="" style="ellipse;whiteSpace=wrap;html=1;fillColor=#080808;" vertex="1" parent="1">
          <mxGeometry x="190" y="520" width="20" height="20" as="geometry" />
        </mxCell>
      </root>
    </mxGraphModel>
  </diagram>
</mxfile>
